<svg preserveAspectRatio="none" width="100%" height="100%" overflow="visible" style="display: block;" viewBox="0 0 16 16" fill="none" xmlns="http://www.w3.org/2000/svg">
<g id="Frame">
<path id="Vector" d="M10.6836 1.33333C9.61959 1.33333 8.61919 1.748 7.86719 2.5L6.45964 3.90625C6.1343 4.23158 6.1343 4.75994 6.45964 5.08594C6.78497 5.41194 7.31202 5.41127 7.63802 5.08594L9.04557 3.67839C9.92024 2.80372 11.4463 2.80372 12.3216 3.67839C12.7596 4.11572 13 4.69774 13 5.31641C13 5.93507 12.7596 6.51709 12.3216 6.95443L10.9141 8.36198C10.5887 8.68731 10.5887 9.21436 10.9141 9.54036C11.0767 9.70303 11.2906 9.78385 11.5039 9.78385C11.7172 9.78385 11.9311 9.70303 12.0938 9.54036L13.5 8.13281C14.252 7.38015 14.6667 6.38041 14.6667 5.31641C14.6667 4.25241 14.252 3.252 13.5 2.5C12.748 1.748 11.7476 1.33333 10.6836 1.33333ZM9.83333 5.33333C9.62 5.33342 9.40616 5.41416 9.24349 5.57682L5.57682 9.24349C5.25149 9.56882 5.25149 10.0972 5.57682 10.4232C5.73949 10.5858 5.95333 10.6667 6.16667 10.6667C6.38 10.6667 6.59384 10.5858 6.75651 10.4232L10.4232 6.75651C10.7485 6.43118 10.7485 5.90282 10.4232 5.57682C10.2605 5.41382 10.0467 5.33325 9.83333 5.33333ZM4.49349 6.21875C4.28024 6.21883 4.06665 6.29957 3.90365 6.46224L2.5 7.86719C1.748 8.61919 1.33333 9.61959 1.33333 10.6836C1.33333 11.7476 1.748 12.7473 2.5 13.5C3.252 14.2527 4.25241 14.6667 5.31641 14.6667C6.38041 14.6667 7.38081 14.252 8.13281 13.5L9.53776 12.0964C9.86309 11.771 9.86309 11.244 9.53776 10.918C9.21243 10.592 8.68341 10.5926 8.35807 10.918L6.95443 12.3216C6.07976 13.1963 4.55305 13.1963 3.67839 12.3216C3.24039 11.8843 3 11.3029 3 10.6836C3 10.0643 3.24039 9.48291 3.67839 9.04557L5.08203 7.64193C5.40736 7.31659 5.40736 6.78824 5.08203 6.46224C4.91936 6.29924 4.70674 6.21867 4.49349 6.21875Z" fill="var(--fill-0, #4E56A0)"/>
</g>
</svg>
