<svg preserveAspectRatio="none" width="100%" height="100%" overflow="visible" style="display: block;" viewBox="0 0 20 20" fill="none" xmlns="http://www.w3.org/2000/svg">
<g id="Frame">
<path id="Vector" d="M16.6666 13.4667V6.53334C16.6666 5.41323 16.6666 4.85318 16.4487 4.42535C16.2569 4.04903 15.951 3.74307 15.5746 3.55132C15.1468 3.33334 14.5868 3.33334 13.4666 3.33334H6.53331C5.41321 3.33334 4.85316 3.33334 4.42533 3.55132C4.04901 3.74307 3.74305 4.04903 3.5513 4.42535C3.33331 4.85318 3.33331 5.41323 3.33331 6.53333V13.4667C3.33331 14.5868 3.33331 15.1468 3.5513 15.5746C3.74305 15.951 4.04901 16.2569 4.42533 16.4487C4.85316 16.6667 5.41321 16.6667 6.53331 16.6667H13.4666C14.5868 16.6667 15.1468 16.6667 15.5746 16.4487C15.951 16.2569 16.2569 15.951 16.4487 15.5746C16.6666 15.1468 16.6666 14.5868 16.6666 13.4667Z" stroke="var(--stroke-0, #381FD1)" stroke-width="2" stroke-linecap="round" stroke-linejoin="round"/>
</g>
</svg>
