<svg preserveAspectRatio="none" width="100%" height="100%" overflow="visible" style="display: block;" viewBox="0 0 24 24" fill="none" xmlns="http://www.w3.org/2000/svg">
<g id="a11y-logo" clip-path="url(#clip0_84_60669)">
<path id="Vector" d="M12 0C5.37271 0 0 5.37271 0 12C0 18.6273 5.37271 24 12 24C18.6273 24 24 18.6273 24 12C24 5.37271 18.6273 0 12 0ZM11.8188 2.38306C12.2305 2.38218 12.6257 2.54483 12.9176 2.83524C13.2094 3.12565 13.3739 3.52006 13.3751 3.93176C13.3752 4.13614 13.335 4.33854 13.2568 4.52739C13.1787 4.71623 13.064 4.8878 12.9195 5.0323C12.775 5.1768 12.6033 5.29138 12.4145 5.36949C12.2256 5.4476 12.0232 5.48772 11.8188 5.48753C11.4073 5.48628 11.0131 5.32173 10.7228 5.03002C10.4325 4.73832 10.2698 4.3433 10.2706 3.93176C10.2705 3.72841 10.3105 3.52703 10.3883 3.33914C10.4661 3.15124 10.5801 2.98051 10.7239 2.83669C10.8677 2.69288 11.0384 2.57879 11.2262 2.50096C11.4141 2.42312 11.6155 2.38306 11.8188 2.38306ZM18.5431 7.39576L13.9271 7.97929L13.9294 12.5991L16.1671 20.0659C16.1954 20.177 16.2015 20.2926 16.185 20.4061C16.1686 20.5196 16.1298 20.6287 16.0711 20.7272C16.0123 20.8257 15.9346 20.9116 15.8426 20.9799C15.7505 21.0483 15.6458 21.0978 15.5346 21.1256C15.0692 21.2433 14.592 20.9845 14.4748 20.5148L12.1831 13.7181H11.4781L9.36988 20.6555C9.19388 21.1092 8.68847 21.3162 8.23718 21.1402C7.78824 20.9661 7.51577 20.456 7.69224 20.0024L9.62871 12.6744V7.97882L5.37459 7.40094C4.93788 7.36565 4.64141 6.98212 4.67671 6.54541C4.70965 6.10588 5.10682 5.77929 5.54165 5.81412L10.7096 6.25835H12.9755L18.4767 5.80518C18.581 5.80083 18.6851 5.81719 18.7831 5.8533C18.881 5.88941 18.9709 5.94456 19.0474 6.01556C19.1239 6.08657 19.1856 6.17203 19.2289 6.26701C19.2722 6.36199 19.2963 6.46461 19.2998 6.56894C19.3186 7.00376 18.9798 7.37741 18.5431 7.39624V7.39576Z" fill="var(--fill-0, #4E56A0)"/>
</g>
<defs>
<clipPath id="clip0_84_60669">
<rect width="24" height="24" fill="white"/>
</clipPath>
</defs>
</svg>
