<svg preserveAspectRatio="none" width="100%" height="100%" overflow="visible" style="display: block;" viewBox="0 0 16 16" fill="none" xmlns="http://www.w3.org/2000/svg">
<g id="Frame" clip-path="url(#clip0_84_60687)">
<path id="Vector" d="M16 8C16 3.58172 12.4183 0 8 0C3.58172 0 0 3.58172 0 8C0 12.4183 3.58172 16 8 16C12.4183 16 16 12.4183 16 8Z" fill="var(--fill-0, #381FD1)"/>
<path id="Vector_2" fill-rule="evenodd" clip-rule="evenodd" d="M7.76186 11.9613V10.7678C8.57876 10.8388 9.38521 10.5447 9.96443 9.96429C10.8871 9.04151 11.0435 7.60108 10.3402 6.50187L6.5017 10.34L5.64596 11.1957C5.48569 11.0773 5.3345 10.947 5.19364 10.8061C3.64379 9.25639 3.64379 6.7437 5.19364 5.19387C5.99579 4.39 7.10456 3.96928 8.23811 4.03865V5.23223C7.42121 5.16116 6.61476 5.45534 6.03554 6.0357C5.11283 6.95848 4.95651 8.39892 5.65979 9.49812L9.49826 5.66005L10.354 4.80438C10.5143 4.92279 10.6655 5.05301 10.8064 5.19395C12.3562 6.74367 12.3562 9.25636 10.8064 10.8062C10.0042 11.61 8.89541 12.0307 7.76186 11.9613Z" fill="var(--fill-0, white)"/>
</g>
<defs>
<clipPath id="clip0_84_60687">
<rect width="16" height="16" fill="white"/>
</clipPath>
</defs>
</svg>
