<svg preserveAspectRatio="none" width="100%" height="100%" overflow="visible" style="display: block;" viewBox="0 0 16 16" fill="none" xmlns="http://www.w3.org/2000/svg">
<g id="Frame">
<path id="Vector" fill-rule="evenodd" clip-rule="evenodd" d="M8.66668 4.66667C8.94282 4.66667 9.16668 4.89052 9.16668 5.16667C9.16668 6.78387 9.52393 7.83418 10.1782 8.48846C10.8325 9.14274 11.8828 9.5 13.5 9.5C13.7762 9.5 14 9.72386 14 10C14 10.2761 13.7762 10.5 13.5 10.5C11.8828 10.5 10.8325 10.8573 10.1782 11.5115C9.52393 12.1658 9.16668 13.2161 9.16668 14.8333C9.16668 15.1095 8.94282 15.3333 8.66668 15.3333C8.39053 15.3333 8.16668 15.1095 8.16668 14.8333C8.16668 13.2161 7.80942 12.1658 7.15514 11.5115C6.50086 10.8573 5.45055 10.5 3.83334 10.5C3.5572 10.5 3.33334 10.2761 3.33334 10C3.33334 9.72386 3.5572 9.5 3.83334 9.5C5.45055 9.5 6.50086 9.14274 7.15514 8.48846C7.80942 7.83418 8.16668 6.78387 8.16668 5.16667C8.16668 4.89052 8.39053 4.66667 8.66668 4.66667ZM8.66668 8.00573C8.46603 8.45952 8.20052 8.85729 7.86224 9.19557C7.52396 9.53385 7.1262 9.79935 6.6724 10C7.1262 10.2006 7.52396 10.4662 7.86224 10.8044C8.20052 11.1427 8.46603 11.5405 8.66668 11.9943C8.86733 11.5405 9.13283 11.1427 9.47111 10.8044C9.80939 10.4662 10.2072 10.2006 10.6609 10C10.2072 9.79935 9.80939 9.53385 9.47111 9.19557C9.13283 8.85729 8.86733 8.45952 8.66668 8.00573Z" fill="var(--fill-0, #0D0D0D)"/>
<path id="Vector_2" d="M4.00001 3.66667C4.00001 3.48257 3.85077 3.33333 3.66668 3.33333C3.48258 3.33333 3.33334 3.48257 3.33334 3.66667C3.33334 4.32042 3.18854 4.71507 2.95181 4.9518C2.71508 5.18853 2.32043 5.33333 1.66668 5.33333C1.48258 5.33333 1.33334 5.48257 1.33334 5.66667C1.33334 5.85076 1.48258 6 1.66668 6C2.32043 6 2.71508 6.14481 2.95181 6.38154C3.18854 6.61826 3.33334 7.01291 3.33334 7.66667C3.33334 7.85076 3.48258 8 3.66668 8C3.85077 8 4.00001 7.85076 4.00001 7.66667C4.00001 7.01291 4.14482 6.61826 4.38155 6.38154C4.61827 6.14481 5.01292 6 5.66668 6C5.85077 6 6.00001 5.85076 6.00001 5.66667C6.00001 5.48257 5.85077 5.33333 5.66668 5.33333C5.01292 5.33333 4.61827 5.18853 4.38155 4.9518C4.14482 4.71507 4.00001 4.32042 4.00001 3.66667Z" fill="var(--fill-0, #0D0D0D)"/>
<path id="Vector_3" d="M7.33334 1C7.33334 0.815905 7.18411 0.666667 7.00001 0.666667C6.81592 0.666667 6.66668 0.815905 6.66668 1C6.66668 1.42227 6.5728 1.65025 6.44486 1.77819C6.31693 1.90612 6.08895 2 5.66668 2C5.48258 2 5.33334 2.14924 5.33334 2.33333C5.33334 2.51743 5.48258 2.66667 5.66668 2.66667C6.08895 2.66667 6.31693 2.76055 6.44486 2.88848C6.5728 3.01641 6.66668 3.24439 6.66668 3.66667C6.66668 3.85076 6.81592 4 7.00001 4C7.18411 4 7.33334 3.85076 7.33334 3.66667C7.33334 3.24439 7.42723 3.01641 7.55516 2.88848C7.68309 2.76055 7.91107 2.66667 8.33334 2.66667C8.51744 2.66667 8.66668 2.51743 8.66668 2.33333C8.66668 2.14924 8.51744 2 8.33334 2C7.91107 2 7.68309 1.90612 7.55516 1.77819C7.42723 1.65025 7.33334 1.42227 7.33334 1Z" fill="var(--fill-0, #0D0D0D)"/>
<g id="Mask group">
<mask id="mask0_84_60676" style="mask-type:luminance" maskUnits="userSpaceOnUse" x="1" y="0" width="13" height="16">
<g id="Group">
<path id="Vector_4" fill-rule="evenodd" clip-rule="evenodd" d="M8.66668 4.66667C8.94282 4.66667 9.16668 4.89052 9.16668 5.16667C9.16668 6.78387 9.52393 7.83418 10.1782 8.48846C10.8325 9.14274 11.8828 9.5 13.5 9.5C13.7762 9.5 14 9.72386 14 10C14 10.2761 13.7762 10.5 13.5 10.5C11.8828 10.5 10.8325 10.8573 10.1782 11.5115C9.52393 12.1658 9.16668 13.2161 9.16668 14.8333C9.16668 15.1095 8.94282 15.3333 8.66668 15.3333C8.39053 15.3333 8.16668 15.1095 8.16668 14.8333C8.16668 13.2161 7.80942 12.1658 7.15514 11.5115C6.50086 10.8573 5.45055 10.5 3.83334 10.5C3.5572 10.5 3.33334 10.2761 3.33334 10C3.33334 9.72386 3.5572 9.5 3.83334 9.5C5.45055 9.5 6.50086 9.14274 7.15514 8.48846C7.80942 7.83418 8.16668 6.78387 8.16668 5.16667C8.16668 4.89052 8.39053 4.66667 8.66668 4.66667ZM8.66668 8.00573C8.46603 8.45952 8.20052 8.85729 7.86224 9.19557C7.52396 9.53385 7.1262 9.79935 6.6724 10C7.1262 10.2006 7.52396 10.4662 7.86224 10.8044C8.20052 11.1427 8.46603 11.5405 8.66668 11.9943C8.86733 11.5405 9.13283 11.1427 9.47111 10.8044C9.80939 10.4662 10.2072 10.2006 10.6609 10C10.2072 9.79935 9.80939 9.53385 9.47111 9.19557C9.13283 8.85729 8.86733 8.45952 8.66668 8.00573Z" fill="var(--fill-0, white)"/>
<path id="Vector_5" d="M4.00001 3.66667C4.00001 3.48257 3.85077 3.33333 3.66668 3.33333C3.48258 3.33333 3.33334 3.48257 3.33334 3.66667C3.33334 4.32042 3.18854 4.71507 2.95181 4.9518C2.71508 5.18853 2.32043 5.33333 1.66668 5.33333C1.48258 5.33333 1.33334 5.48257 1.33334 5.66667C1.33334 5.85076 1.48258 6 1.66668 6C2.32043 6 2.71508 6.14481 2.95181 6.38154C3.18854 6.61826 3.33334 7.01291 3.33334 7.66667C3.33334 7.85076 3.48258 8 3.66668 8C3.85077 8 4.00001 7.85076 4.00001 7.66667C4.00001 7.01291 4.14482 6.61826 4.38155 6.38154C4.61827 6.14481 5.01292 6 5.66668 6C5.85077 6 6.00001 5.85076 6.00001 5.66667C6.00001 5.48257 5.85077 5.33333 5.66668 5.33333C5.01292 5.33333 4.61827 5.18853 4.38155 4.9518C4.14482 4.71507 4.00001 4.32042 4.00001 3.66667Z" fill="var(--fill-0, white)"/>
<path id="Vector_6" d="M7.33334 1C7.33334 0.815905 7.18411 0.666667 7.00001 0.666667C6.81592 0.666667 6.66668 0.815905 6.66668 1C6.66668 1.42227 6.5728 1.65025 6.44486 1.77819C6.31693 1.90612 6.08895 2 5.66668 2C5.48258 2 5.33334 2.14924 5.33334 2.33333C5.33334 2.51743 5.48258 2.66667 5.66668 2.66667C6.08895 2.66667 6.31693 2.76055 6.44486 2.88848C6.5728 3.01641 6.66668 3.24439 6.66668 3.66667C6.66668 3.85076 6.81592 4 7.00001 4C7.18411 4 7.33334 3.85076 7.33334 3.66667C7.33334 3.24439 7.42723 3.01641 7.55516 2.88848C7.68309 2.76055 7.91107 2.66667 8.33334 2.66667C8.51744 2.66667 8.66668 2.51743 8.66668 2.33333C8.66668 2.14924 8.51744 2 8.33334 2C7.91107 2 7.68309 1.90612 7.55516 1.77819C7.42723 1.65025 7.33334 1.42227 7.33334 1Z" fill="var(--fill-0, white)"/>
</g>
</mask>
<g mask="url(#mask0_84_60676)">
<path id="Vector_7" d="M8.66668 8.00573L9.58127 7.60134C9.42118 7.23927 9.06256 7.00573 8.66668 7.00573C8.2708 7.00573 7.91218 7.23927 7.75209 7.60134L8.66668 8.00573ZM6.6724 10L6.26802 9.08541C5.90595 9.2455 5.6724 9.60412 5.6724 10C5.6724 10.3959 5.90595 10.7545 6.26802 10.9146L6.6724 10ZM8.66668 11.9943L7.75209 12.3987C7.91218 12.7607 8.2708 12.9943 8.66668 12.9943C9.06256 12.9943 9.42118 12.7607 9.58127 12.3987L8.66668 11.9943ZM10.6609 10L11.0653 10.9146C11.4274 10.7545 11.6609 10.3959 11.6609 10C11.6609 9.60412 11.4274 9.2455 11.0653 9.08541L10.6609 10ZM10.1667 5.16667C10.1667 4.33824 9.4951 3.66667 8.66668 3.66667V5.66667C8.39053 5.66667 8.16668 5.44281 8.16668 5.16667H10.1667ZM10.8853 7.78135C10.4998 7.39579 10.1667 6.66123 10.1667 5.16667H8.16668C8.16668 6.90652 8.54811 8.27256 9.47111 9.19557L10.8853 7.78135ZM13.5 8.5C12.0055 8.5 11.2709 8.16692 10.8853 7.78135L9.47111 9.19557C10.3941 10.1186 11.7602 10.5 13.5 10.5V8.5ZM15 10C15 9.17157 14.3284 8.5 13.5 8.5V10.5C13.2239 10.5 13 10.2761 13 10H15ZM13.5 11.5C14.3284 11.5 15 10.8284 15 10H13C13 9.72386 13.2239 9.5 13.5 9.5V11.5ZM10.8853 12.2186C11.2709 11.8331 12.0055 11.5 13.5 11.5V9.5C11.7602 9.5 10.3941 9.88143 9.47111 10.8044L10.8853 12.2186ZM10.1667 14.8333C10.1667 13.3388 10.4998 12.6042 10.8853 12.2186L9.47111 10.8044C8.54811 11.7274 8.16668 13.0935 8.16668 14.8333H10.1667ZM8.66668 16.3333C9.4951 16.3333 10.1667 15.6618 10.1667 14.8333H8.16668C8.16668 14.5572 8.39053 14.3333 8.66668 14.3333V16.3333ZM7.16668 14.8333C7.16668 15.6618 7.83825 16.3333 8.66668 16.3333V14.3333C8.94282 14.3333 9.16668 14.5572 9.16668 14.8333H7.16668ZM6.44803 12.2186C6.83359 12.6042 7.16668 13.3388 7.16668 14.8333H9.16668C9.16668 13.0935 8.78525 11.7274 7.86224 10.8044L6.44803 12.2186ZM3.83334 11.5C5.3279 11.5 6.06247 11.8331 6.44803 12.2186L7.86224 10.8044C6.93924 9.88143 5.57319 9.5 3.83334 9.5V11.5ZM2.33334 10C2.33334 10.8284 3.00492 11.5 3.83334 11.5V9.5C4.10949 9.5 4.33334 9.72386 4.33334 10H2.33334ZM3.83334 8.5C3.00492 8.5 2.33334 9.17157 2.33334 10H4.33334C4.33334 10.2761 4.10949 10.5 3.83334 10.5V8.5ZM6.44803 7.78135C6.06247 8.16692 5.3279 8.5 3.83334 8.5V10.5C5.57319 10.5 6.93924 10.1186 7.86224 9.19557L6.44803 7.78135ZM7.16668 5.16667C7.16668 6.66123 6.83359 7.39579 6.44803 7.78135L7.86224 9.19557C8.78525 8.27256 9.16668 6.90652 9.16668 5.16667H7.16668ZM8.66668 3.66667C7.83825 3.66667 7.16668 4.33824 7.16668 5.16667H9.16668C9.16668 5.44281 8.94282 5.66667 8.66668 5.66667V3.66667ZM8.56935 9.90267C9.00223 9.46979 9.33511 8.96683 9.58127 8.41012L7.75209 7.60134C7.59695 7.95222 7.39882 8.24478 7.15514 8.48846L8.56935 9.90267ZM7.07679 10.9146C7.6335 10.6684 8.13647 10.3356 8.56935 9.90267L7.15514 8.48846C6.91146 8.73214 6.6189 8.93027 6.26802 9.08541L7.07679 10.9146ZM8.56935 10.0973C8.13647 9.66444 7.6335 9.33156 7.07679 9.08541L6.26802 10.9146C6.6189 11.0697 6.91146 11.2679 7.15514 11.5115L8.56935 10.0973ZM9.58127 11.5899C9.33511 11.0332 9.00223 10.5302 8.56935 10.0973L7.15514 11.5115C7.39882 11.7552 7.59695 12.0478 7.75209 12.3987L9.58127 11.5899ZM8.764 10.0973C8.33112 10.5302 7.99824 11.0332 7.75209 11.5899L9.58127 12.3987C9.73641 12.0478 9.93454 11.7552 10.1782 11.5115L8.764 10.0973ZM10.2566 9.08541C9.69985 9.33156 9.19689 9.66444 8.764 10.0973L10.1782 11.5115C10.4219 11.2679 10.7145 11.0697 11.0653 10.9146L10.2566 9.08541ZM8.764 9.90267C9.19688 10.3356 9.69985 10.6684 10.2566 10.9146L11.0653 9.08541C10.7145 8.93027 10.4219 8.73214 10.1782 8.48846L8.764 9.90267ZM7.75209 8.41012C7.99824 8.96682 8.33112 9.46979 8.764 9.90267L10.1782 8.48846C9.93454 8.24478 9.73641 7.95222 9.58127 7.60134L7.75209 8.41012ZM3.66668 4.33333C3.29849 4.33333 3.00001 4.03486 3.00001 3.66667H5.00001C5.00001 2.93029 4.40306 2.33333 3.66668 2.33333V4.33333ZM4.33334 3.66667C4.33334 4.03486 4.03487 4.33333 3.66668 4.33333V2.33333C2.9303 2.33333 2.33334 2.93029 2.33334 3.66667H4.33334ZM3.65891 5.6589C4.16417 5.15365 4.33334 4.44349 4.33334 3.66667H2.33334C2.33334 4.19735 2.2129 4.27649 2.2447 4.24469L3.65891 5.6589ZM1.66668 6.33333C2.4435 6.33333 3.15366 6.16416 3.65891 5.6589L2.2447 4.24469C2.2765 4.21289 2.19736 4.33333 1.66668 4.33333V6.33333ZM2.33334 5.66667C2.33334 6.03486 2.03487 6.33333 1.66668 6.33333V4.33333C0.930297 4.33333 0.333344 4.93029 0.333344 5.66667H2.33334ZM1.66668 5C2.03487 5 2.33334 5.29848 2.33334 5.66667H0.333344C0.333344 6.40305 0.930297 7 1.66668 7V5ZM3.65892 5.67443C3.15367 5.16917 2.4435 5 1.66668 5V7C2.19736 7 2.2765 7.12044 2.2447 7.08864L3.65892 5.67443ZM4.33334 7.66667C4.33334 6.88984 4.16417 6.17968 3.65892 5.67443L2.2447 7.08864C2.2129 7.05684 2.33334 7.13598 2.33334 7.66667H4.33334ZM3.66668 7C4.03487 7 4.33334 7.29848 4.33334 7.66667H2.33334C2.33334 8.40305 2.9303 9 3.66668 9V7ZM3.00001 7.66667C3.00001 7.29848 3.29849 7 3.66668 7V9C4.40306 9 5.00001 8.40305 5.00001 7.66667H3.00001ZM3.67444 5.67443C3.16918 6.17968 3.00001 6.88984 3.00001 7.66667H5.00001C5.00001 7.13598 5.12045 7.05684 5.08865 7.08864L3.67444 5.67443ZM5.66668 5C4.88985 5 4.1797 5.16917 3.67444 5.67443L5.08865 7.08864C5.05685 7.12044 5.13599 7 5.66668 7V5ZM5.00001 5.66667C5.00001 5.29848 5.29849 5 5.66668 5V7C6.40306 7 7.00001 6.40305 7.00001 5.66667H5.00001ZM5.66668 6.33333C5.29849 6.33333 5.00001 6.03486 5.00001 5.66667H7.00001C7.00001 4.93029 6.40306 4.33333 5.66668 4.33333V6.33333ZM3.67444 5.6589C4.1797 6.16416 4.88986 6.33333 5.66668 6.33333V4.33333C5.13599 4.33333 5.05685 4.21289 5.08865 4.24469L3.67444 5.6589ZM3.00001 3.66667C3.00001 4.44349 3.16918 5.15365 3.67444 5.6589L5.08865 4.24469C5.12045 4.27649 5.00001 4.19735 5.00001 3.66667H3.00001ZM7.00001 1.66667C6.63182 1.66667 6.33334 1.36819 6.33334 1H8.33334C8.33334 0.26362 7.73639 -0.333333 7.00001 -0.333333V1.66667ZM7.66668 1C7.66668 1.36819 7.3682 1.66667 7.00001 1.66667V-0.333333C6.26363 -0.333333 5.66668 0.26362 5.66668 1H7.66668ZM7.15197 2.48529C7.54813 2.08914 7.66668 1.54601 7.66668 1H5.66668C5.66668 1.06908 5.6628 1.11873 5.65842 1.15233C5.65404 1.18591 5.64956 1.20026 5.64961 1.2001C5.6498 1.19949 5.65488 1.18358 5.66956 1.1584C5.68464 1.13253 5.70695 1.10188 5.73776 1.07108L7.15197 2.48529ZM5.66668 3C6.21268 3 6.75582 2.88145 7.15197 2.48529L5.73776 1.07108C5.76856 1.04028 5.7992 1.01797 5.82508 1.00288C5.85026 0.988204 5.86616 0.983124 5.86678 0.982931C5.86693 0.982882 5.85259 0.987359 5.81901 0.991741C5.78541 0.996127 5.73576 1 5.66668 1V3ZM6.33334 2.33333C6.33334 2.70152 6.03487 3 5.66668 3V1C4.9303 1 4.33334 1.59695 4.33334 2.33333H6.33334ZM5.66668 1.66667C6.03487 1.66667 6.33334 1.96514 6.33334 2.33333H4.33334C4.33334 3.06971 4.9303 3.66667 5.66668 3.66667V1.66667ZM7.15197 2.18137C6.75582 1.78522 6.21268 1.66667 5.66668 1.66667V3.66667C5.73576 3.66667 5.78541 3.67054 5.81901 3.67493C5.85259 3.67931 5.86693 3.68378 5.86678 3.68374C5.86616 3.68354 5.85026 3.67846 5.82508 3.66379C5.7992 3.6487 5.76856 3.62639 5.73776 3.59559L7.15197 2.18137ZM7.66668 3.66667C7.66668 3.12066 7.54813 2.57753 7.15197 2.18137L5.73776 3.59559C5.70695 3.56478 5.68464 3.53414 5.66956 3.50826C5.65488 3.48309 5.6498 3.46718 5.64961 3.46656C5.64956 3.46641 5.65404 3.48075 5.65842 3.51433C5.6628 3.54794 5.66668 3.59759 5.66668 3.66667H7.66668ZM7.00001 3C7.3682 3 7.66668 3.29848 7.66668 3.66667H5.66668C5.66668 4.40305 6.26363 5 7.00001 5V3ZM6.33334 3.66667C6.33334 3.29848 6.63182 3 7.00001 3V5C7.73639 5 8.33334 4.40305 8.33334 3.66667H6.33334ZM6.84805 2.18137C6.45189 2.57753 6.33334 3.12066 6.33334 3.66667H8.33334C8.33334 3.59759 8.33722 3.54794 8.3416 3.51433C8.34598 3.48075 8.35046 3.46641 8.35041 3.46656C8.35022 3.46718 8.34514 3.48309 8.33046 3.50826C8.31538 3.53414 8.29307 3.56478 8.26226 3.59559L6.84805 2.18137ZM8.33334 1.66667C7.78734 1.66667 7.24421 1.78522 6.84805 2.18137L8.26226 3.59559C8.23146 3.62639 8.20082 3.6487 8.17494 3.66379C8.14976 3.67846 8.13386 3.68354 8.13324 3.68374C8.13309 3.68378 8.14743 3.67931 8.18101 3.67493C8.21461 3.67054 8.26427 3.66667 8.33334 3.66667V1.66667ZM7.66668 2.33333C7.66668 1.96514 7.96515 1.66667 8.33334 1.66667V3.66667C9.06972 3.66667 9.66668 3.06971 9.66668 2.33333H7.66668ZM8.33334 3C7.96515 3 7.66668 2.70152 7.66668 2.33333H9.66668C9.66668 1.59695 9.06972 1 8.33334 1V3ZM6.84805 2.48529C7.24421 2.88145 7.78734 3 8.33334 3V1C8.26427 1 8.21461 0.996127 8.18101 0.991741C8.14743 0.987359 8.13309 0.982882 8.13324 0.982931C8.13386 0.983124 8.14976 0.988204 8.17494 1.00288C8.20082 1.01797 8.23146 1.04028 8.26226 1.07108L6.84805 2.48529ZM6.33334 1C6.33334 1.54601 6.45189 2.08914 6.84805 2.48529L8.26226 1.07108C8.29307 1.10188 8.31538 1.13253 8.33046 1.1584C8.34514 1.18358 8.35022 1.19949 8.35041 1.2001C8.35046 1.20026 8.34598 1.18591 8.3416 1.15233C8.33722 1.11873 8.33334 1.06908 8.33334 1H6.33334Z" fill="var(--fill-0, #757575)"/>
</g>
</g>
</g>
</svg>
